# xmcd CD database file
#
# Track frame offsets:
#	150
#	18770
#	28061
#	40497
#	59504
#	69413
#	80912
#	94343
#	110633
#	123137
#	130899
#	147047
#	165431
#	186376
#	195539
#	218347
#	227633
#	236911
#	253981
#
# Disc length: 3514 seconds
#
# Revision: 0
# Processed by: cddbd v1.5.2PL0 Copyright (c) Steve Scherf et al.
# Submitted via: CDex 1.51
#
DISCID=110db813
DTITLE=Richard Ray Farrell - Acoustic Roots
DYEAR=2005
DGENRE=Blues
TTITLE0=Diggin My Potatoes
TTITLE1=I Want You To Know
TTITLE2=One Dime Blues
TTITLE3=Shake 'Em On Down
TTITLE4=Ella Speed
TTITLE5=Sassy Mae
TTITLE6=Lonely Widower
TTITLE7=Mean Mistreater
TTITLE8=Buck Dancer`s Choice
TTITLE9=Jivin' Woman Blues
TTITLE10=Poor Boy
TTITLE11=Rope Stretchin' Blues
TTITLE12=Fixin' To Die
TTITLE13=Louis Collins
TTITLE14=Jinx Blues
TTITLE15=Let`s Get Drunk Again
TTITLE16=John Henry
TTITLE17=Too Many Drivers
TTITLE18=Blues-Flamenco
EXTD=YEAR: 2005
EXTT0=
EXTT1=
EXTT2=
EXTT3=
EXTT4=
EXTT5=
EXTT6=
EXTT7=
EXTT8=
EXTT9=
EXTT10=
EXTT11=
EXTT12=
EXTT13=
EXTT14=
EXTT15=
EXTT16=
EXTT17=
EXTT18=
PLAYORDER=
